<svg width="1000" height="1000" viewBox="0 0 1000 1000" xmlns="http://www.w3.org/2000/svg"><defs/><path fill="#f5f5f5" d="M 0 0 L 1000 0 L 1000 1000 L 0 1000 Z"/><path fill="none" visibility="hidden" transform="matrix(0.3319983570215407 0 0 0.3319983570215407 26.78686588343622 13.527637674356287)" d="M 464.72573454262 1393.58545107854 L 581.02573454262 1455.08545107854 L 581.02573454262 1601.58545107854 L 701.22573454262 1534.68545107854 L 701.22573454262 1395.88545107854 L 581.02573454262 1326.48545107854 Z"/><path fill="#e6e6fa" transform="matrix(0.3319983570215407 0 0 0.3319983570215407 26.78686588343622 13.527637674356287)" d="M 581.02573454262 1222.98545107854 L 371.12573454262 1344.08545107854 L 424.22573454262 1372.18545107854 L 464.72573454262 1393.58545107854 L 581.02573454262 1326.48545107854 L 701.22573454262 1395.88545107854 L 733.32573454262 1377.38545107854 L 790.92573454262 1344.08545107854 Z"/><g opacity="0.35" transform="matrix(0.3319983570215407 0 0 0.3319983570215407 26.78686588343622 13.527637674356287)"><path fill="#e6e6fa" d="M 701.22573454262 1395.88545107854 L 581.02573454262 1326.48545107854 L 464.72573454262 1393.58545107854 L 581.02573454262 1455.08545107854 L 581.02573454262 1455.08545107854 L 581.02573454262 1601.58545107854 L 701.22573454262 1534.68545107854 L 701.22573454262 1395.88545107854 Z"/></g><g opacity="0.8" transform="matrix(0.3319983570215407 0 0 0.3319983570215407 26.78686588343622 13.527637674356287)"><path fill="#9966cc" d="M 464.72573454262 1393.58545107854 L 424.22573454262 1372.18545107854 L 371.12573454262 1344.08545107854 L 371.12573454262 1447.68545107854 L 371.12573454262 1586.48545107854 L 371.42573454262 1586.58545107854 L 581.02573454262 1455.08545107854 Z"/></g><g opacity="0.8" transform="matrix(0.3319983570215407 0 0 0.3319983570215407 26.78686588343622 13.527637674356287)"><path fill="#9966cc" d="M 733.32573454262 1377.38545107854 L 701.22573454262 1395.88545107854 L 701.22573454262 1534.68545107854 L 581.02573454262 1601.58545107854 L 581.02573454262 1707.58545107854 L 790.92573454262 1586.48545107854 L 790.92573454262 1447.68545107854 L 790.92573454262 1344.08545107854 Z"/></g><path fill="#9966cc" transform="matrix(0.3319983570215407 0 0 0.3319983570215407 26.78686588343622 13.527637674356287)" d="M 581.02573454262 1455.08545107854 L 371.42573454262 1586.58545107854 L 581.02573454262 1707.58545107854 L 581.02573454262 1601.58545107854 Z"/><path id="text" fill="#9966cc" transform="matrix(1.2039511779561678 0 0 1.2039511779561678 212.9427530248242 87.25680285947897)" d="M 138.94677127198 313.59186586572 C 144.29077127198 316.31186586572 148.41877127198 320.21586586572 151.33077127198 325.30386586572 C 154.24277127198 330.39186586572 155.69877127198 336.32786586572 155.69877127198 343.11186586572 C 155.69877127198 349.89586586572 154.24277127198 355.78386586572 151.33077127198 360.77586586572 C 148.41877127198 365.76786586572 144.29077127198 369.59186586572 138.94677127198 372.24786586572 C 133.60277127198 374.90386586572 127.37877127198 376.23186586572 120.27477127198 376.23186586572 L 98.48277127198 376.23186586572 L 98.48277127198 309.51186586572 L 120.27477127198 309.51186586572 C 127.37877127198 309.51186586572 133.60277127198 310.87186586572 138.94677127198 313.59186586572 Z M 138.22677127198 360.96786586572 C 142.38677127198 356.74386586572 144.46677127198 350.79186586572 144.46677127198 343.11186586572 C 144.46677127198 335.36786586572 142.38677127198 329.31986586572 138.22677127198 324.96786586572 C 134.06677127198 320.61586586572 128.08277127198 318.43986586572 120.27477127198 318.43986586572 L 109.42677127198 318.43986586572 L 109.42677127198 367.30386586572 L 120.27477127198 367.30386586572 C 128.08277127198 367.30386586572 134.06677127198 365.19186586572 138.22677127198 360.96786586572 Z M 177.49077127198 318.34386586572 L 177.49077127198 337.92786586572 L 200.53077127198 337.92786586572 L 200.53077127198 346.85586586572 L 177.49077127198 346.85586586572 L 177.49077127198 367.30386586572 L 203.41077127198 367.30386586572 L 203.41077127198 376.23186586572 L 166.54677127198 376.23186586572 L 166.54677127198 309.41586586572 L 203.41077127198 309.41586586572 L 203.41077127198 318.34386586572 L 177.49077127198 318.34386586572 Z M 274.35477127198 309.51186586572 L 249.29877127198 376.23186586572 L 236.62677127198 376.23186586572 L 211.47477127198 309.51186586572 L 223.18677127198 309.51186586572 L 242.96277127198 364.99986586572 L 262.83477127198 309.51186586572 L 274.35477127198 309.51186586572 Z M 294.41877127198 367.39986586572 L 316.97877127198 367.39986586572 L 316.97877127198 376.23186586572 L 283.47477127198 376.23186586572 L 283.47477127198 309.51186586572 L 294.41877127198 309.51186586572 L 294.41877127198 367.39986586572 Z M 337.04277127198 309.51186586572 L 337.04277127198 376.23186586572 L 326.09877127198 376.23186586572 L 326.09877127198 309.51186586572 L 337.04277127198 309.51186586572 Z M 406.25877127198 376.23186586572 L 395.31477127198 376.23186586572 L 362.38677127198 326.40786586572 L 362.38677127198 376.23186586572 L 351.44277127198 376.23186586572 L 351.44277127198 309.41586586572 L 362.38677127198 309.41586586572 L 395.31477127198 359.14386586572 L 395.31477127198 309.41586586572 L 406.25877127198 309.41586586572 L 406.25877127198 376.23186586572 Z M 457.42677127198 376.23186586572 L 431.60277127198 346.37586586572 L 431.60277127198 376.23186586572 L 420.65877127198 376.23186586572 L 420.65877127198 309.51186586572 L 431.60277127198 309.51186586572 L 431.60277127198 339.94386586572 L 457.52277127198 309.51186586572 L 471.25077127198 309.51186586572 L 442.25877127198 342.91986586572 L 471.73077127198 376.23186586572 L 457.42677127198 376.23186586572 Z M 516.08277127198 376.23186586572 L 500.72277127198 349.54386586572 L 492.37077127198 349.54386586572 L 492.37077127198 376.23186586572 L 481.42677127198 376.23186586572 L 481.42677127198 309.51186586572 L 504.46677127198 309.51186586572 C 509.58677127198 309.51186586572 513.92277127198 310.40786586572 517.47477127198 312.19986586572 C 521.02677127198 313.99186586572 523.68277127198 316.39186586572 525.44277127198 319.39986586572 C 527.20277127198 322.40786586572 528.08277127198 325.76786586572 528.08277127198 329.47986586572 C 528.08277127198 333.83186586572 526.81877127198 337.78386586572 524.29077127198 341.33586586572 C 521.76277127198 344.88786586572 517.87477127198 347.30386586572 512.62677127198 348.58386586572 L 529.13877127198 376.23186586572 L 516.08277127198 376.23186586572 Z M 492.37077127198 340.80786586572 L 504.46677127198 340.80786586572 C 508.56277127198 340.80786586572 511.65077127198 339.78386586572 513.73077127198 337.73586586572 C 515.81077127198 335.68786586572 516.85077127198 332.93586586572 516.85077127198 329.47986586572 C 516.85077127198 326.02386586572 515.82677127198 323.31986586572 513.77877127198 321.36786586572 C 511.73077127198 319.41586586572 508.62677127198 318.43986586572 504.46677127198 318.43986586572 L 492.37077127198 318.43986586572 L 492.37077127198 340.80786586572 Z"/></svg>