<svg width="1000" height="1000" viewBox="0 0 1000 1000" xmlns="http://www.w3.org/2000/svg"><defs/><path fill="#ffffff" d="M 0 0 L 1000 0 L 1000 1000 L 0 1000 Z"/><path transform="matrix(0.27324730019197785 0 0 0.27324730019197785 31.03234028180255 12.99878747594854)" d="M 437.88457519841 1797.17273309524 C 444.48457519841 1821.57273309524 467.48457519841 1846.27273309524 503.88457519841 1846.27273309524 C 503.88457519841 1846.27273309524 503.88457519841 1846.27273309524 503.88457519841 1846.27273309524 C 504.98457519841 1846.27273309524 506.08457519841 1846.27273309524 507.18457519841 1846.17273309524 C 539.58457519841 1844.87273309524 576.18457519841 1825.67273309524 616.08457519841 1788.87273309524 C 668.08457519841 1740.97273309524 706.58457519841 1692.37273309524 737.48457519841 1649.77273309524 C 733.68457519841 1644.67273309524 731.48457519841 1638.17273309524 731.88457519841 1631.27273309524 C 732.78457519841 1615.87273309524 745.98457519841 1603.87273309524 761.58457519841 1604.77273309524 C 761.88457519841 1604.77273309524 762.18457519841 1604.87273309524 762.48457519841 1604.87273309524 L 685.68457519841 1560.57273309524 C 664.28457519841 1548.17273309524 629.28457519841 1548.17273309524 607.88457519841 1560.57273309524 L 474.28457519841 1637.77273309524 C 452.88457519841 1650.17273309524 435.38457519841 1680.47273309524 435.38457519841 1705.17273309524 L 435.38457519841 1783.07273309524 C 435.88457519841 1788.17273309524 436.78457519841 1793.07273309524 437.88457519841 1797.17273309524 Z"/><path transform="matrix(0.27324730019197785 0 0 0.27324730019197785 31.03234028180255 12.99878747594854)" d="M 771.68457519841 1633.67273309524 C 771.88457519841 1630.57273309524 770.78457519841 1627.47273309524 768.68457519841 1625.17273309524 C 766.58457519841 1622.87273309524 763.68457519841 1621.47273309524 760.58457519841 1621.27273309524 C 760.38457519841 1621.27273309524 760.08457519841 1621.27273309524 759.88457519841 1621.27273309524 C 753.68457519841 1621.27273309524 748.48457519841 1626.17273309524 748.18457519841 1632.37273309524 C 747.78457519841 1638.87273309524 752.78457519841 1644.37273309524 759.28457519841 1644.77273309524 C 765.78457519841 1645.07273309524 771.38457519841 1640.07273309524 771.68457519841 1633.67273309524 Z"/><path fill="#777777" transform="matrix(0.27324730019197785 0 0 0.27324730019197785 31.03234028180255 12.99878747594854)" d="M 819.28457519841 1637.77273309524 L 782.98457519841 1616.87273309524 C 786.58457519841 1622.07273309524 788.38457519841 1628.27273309524 788.08457519841 1634.67273309524 C 787.18457519841 1649.57273309524 774.88457519841 1661.17273309524 759.98457519841 1661.17273309524 C 759.48457519841 1661.17273309524 758.88457519841 1661.17273309524 758.38457519841 1661.17273309524 C 757.48457519841 1661.07273309524 756.68457519841 1660.97273309524 755.78457519841 1660.87273309524 C 714.78457519841 1723.07273309524 607.08457519841 1870.67273309524 506.58457519841 1876.87273309524 C 505.98457519841 1876.87273309524 505.48457519841 1876.97273309524 504.88457519841 1876.97273309524 C 503.88457519841 1876.97273309524 502.88457519841 1877.07273309524 501.88457519841 1877.07273309524 C 501.88457519841 1877.07273309524 501.88457519841 1877.07273309524 501.88457519841 1877.07273309524 C 478.98457519841 1877.07273309524 456.38457519841 1867.07273309524 439.98457519841 1849.67273309524 C 438.38457519841 1847.97273309524 436.88457519841 1846.17273309524 435.48457519841 1844.37273309524 L 435.48457519841 1859.57273309524 C 435.48457519841 1884.27273309524 452.98457519841 1914.57273309524 474.38457519841 1926.97273309524 L 503.48457519841 1943.77273309524 C 515.38457519841 1949.17273309524 529.08457519841 1951.97273309524 543.58457519841 1951.97273309524 C 546.18457519841 1951.97273309524 548.78457519841 1951.87273309524 551.38457519841 1951.67273309524 C 590.88457519841 1949.07273309524 633.78457519841 1927.07273309524 672.08457519841 1889.77273309524 C 722.48457519841 1840.57273309524 756.78457519841 1794.27273309524 785.98457519841 1751.17273309524 C 780.68457519841 1743.97273309524 778.98457519841 1734.27273309524 782.38457519841 1725.37273309524 C 787.68457519841 1711.47273309524 803.28457519841 1704.47273309524 817.38457519841 1709.87273309524 C 824.08457519841 1712.47273309524 829.48457519841 1717.57273309524 832.38457519841 1724.17273309524 C 835.28457519841 1730.77273309524 835.48457519841 1738.17273309524 832.88457519841 1744.87273309524 C 828.38457519841 1756.67273309524 816.38457519841 1763.47273309524 804.38457519841 1761.97273309524 C 768.98457519841 1821.77273309524 683.48457519841 1948.67273309524 580.78457519841 1976.67273309524 C 575.98457519841 1977.97273309524 570.98457519841 1978.97273309524 565.98457519841 1979.67273309524 L 608.08457519841 2003.97273309524 C 629.48457519841 2016.37273309524 664.48457519841 2016.37273309524 685.88457519841 2003.97273309524 L 819.48457519841 1926.87273309524 C 840.88457519841 1914.47273309524 858.38457519841 1884.17273309524 858.38457519841 1859.47273309524 L 858.38457519841 1705.17273309524 C 858.18457519841 1680.47273309524 840.68457519841 1650.07273309524 819.28457519841 1637.77273309524 Z"/><path transform="matrix(0.27324730019197785 0 0 0.27324730019197785 31.03234028180255 12.99878747594854)" d="M 817.08457519841 1738.67273309524 C 818.08457519841 1736.07273309524 817.98457519841 1733.37273309524 816.88457519841 1730.87273309524 C 815.78457519841 1728.37273309524 813.78457519841 1726.47273309524 811.18457519841 1725.47273309524 C 810.98457519841 1725.37273309524 810.78457519841 1725.37273309524 810.58457519841 1725.27273309524 C 805.38457519841 1723.67273309524 799.88457519841 1726.27273309524 797.88457519841 1731.37273309524 C 795.88457519841 1736.67273309524 798.48457519841 1742.57273309524 803.78457519841 1744.67273309524 C 809.08457519841 1746.57273309524 815.08457519841 1743.97273309524 817.08457519841 1738.67273309524 Z"/><path id="text" transform="matrix(0.9131962723429816 0 0 0.9131962723429816 182.85954606250095 60.12018951652034)" d="M 135.93138457885 516.25251650019 C 132.28338457885 516.25251650019 129.14738457885 514.94051650019 126.52338457885 512.31651650019 C 123.89938457885 509.69251650019 122.58738457885 506.55651650019 122.58738457885 502.90851650019 L 122.58738457885 497.62851650019 L 135.25938457885 497.62851650019 L 135.25938457885 500.12451650019 C 135.25938457885 501.91651650019 135.37138457885 502.92451650019 135.59538457885 503.14851650019 C 135.81938457885 503.37251650019 136.82738457885 503.48451650019 138.61938457885 503.48451650019 L 175.57938457885 503.48451650019 C 177.37138457885 503.48451650019 178.37938457885 503.37251650019 178.60338457885 503.14851650019 C 178.82738457885 502.92451650019 178.93938457885 501.91651650019 178.93938457885 500.12451650019 L 178.93938457885 491.38851650019 C 178.93938457885 489.59651650019 178.82738457885 488.58851650019 178.60338457885 488.36451650019 C 178.37938457885 488.14051650019 177.37138457885 488.02851650019 175.57938457885 488.02851650019 L 135.93138457885 488.02851650019 C 132.28338457885 488.02851650019 129.14738457885 486.71651650019 126.52338457885 484.09251650019 C 123.89938457885 481.46851650019 122.58738457885 478.33251650019 122.58738457885 474.68451650019 L 122.58738457885 460.47651650019 C 122.58738457885 456.82851650019 123.89938457885 453.69251650019 126.52338457885 451.06851650019 C 129.14738457885 448.44451650019 132.28338457885 447.13251650019 135.93138457885 447.13251650019 L 178.36338457885 447.13251650019 C 182.01138457885 447.13251650019 185.14738457885 448.44451650019 187.77138457885 451.06851650019 C 190.39538457885 453.69251650019 191.70738457885 456.82851650019 191.70738457885 460.47651650019 L 191.70738457885 465.75651650019 L 178.93938457885 465.75651650019 L 178.93938457885 463.26051650019 C 178.93938457885 461.46851650019 178.82738457885 460.46051650019 178.60338457885 460.23651650019 C 178.37938457885 460.01251650019 177.37138457885 459.90051650019 175.57938457885 459.90051650019 L 138.61938457885 459.90051650019 C 136.82738457885 459.90051650019 135.81938457885 460.01251650019 135.59538457885 460.23651650019 C 135.37138457885 460.46051650019 135.25938457885 461.46851650019 135.25938457885 463.26051650019 L 135.25938457885 471.99651650019 C 135.25938457885 473.78851650019 135.37138457885 474.78051650019 135.59538457885 474.97251650019 C 135.81938457885 475.16451650019 136.82738457885 475.26051650019 138.61938457885 475.26051650019 L 178.36338457885 475.26051650019 C 182.01138457885 475.26051650019 185.14738457885 476.58851650019 187.77138457885 479.24451650019 C 190.39538457885 481.90051650019 191.70738457885 485.05251650019 191.70738457885 488.70051650019 L 191.70738457885 502.90851650019 C 191.70738457885 506.55651650019 190.39538457885 509.69251650019 187.77138457885 512.31651650019 C 185.14738457885 514.94051650019 182.01138457885 516.25251650019 178.36338457885 516.25251650019 L 135.93138457885 516.25251650019 Z M 226.93938457885 516.25251650019 L 226.93938457885 459.90051650019 L 198.71538457885 459.90051650019 L 198.71538457885 447.13251650019 L 267.83538457885 447.13251650019 L 267.83538457885 459.90051650019 L 239.70738457885 459.90051650019 L 239.70738457885 516.25251650019 L 226.93938457885 516.25251650019 Z M 275.22738457885 516.25251650019 L 275.22738457885 460.47651650019 C 275.22738457885 456.82851650019 276.53938457885 453.69251650019 279.16338457885 451.06851650019 C 281.78738457885 448.44451650019 284.92338457885 447.13251650019 288.57138457885 447.13251650019 L 330.90738457885 447.13251650019 C 334.61938457885 447.13251650019 337.78738457885 448.44451650019 340.41138457885 451.06851650019 C 343.03538457885 453.69251650019 344.34738457885 456.82851650019 344.34738457885 460.47651650019 L 344.34738457885 516.25251650019 L 331.57938457885 516.25251650019 L 331.57938457885 493.02051650019 L 287.89938457885 493.02051650019 L 287.89938457885 516.25251650019 L 275.22738457885 516.25251650019 Z M 287.89938457885 480.34851650019 L 331.57938457885 480.34851650019 L 331.57938457885 463.26051650019 C 331.57938457885 461.46851650019 331.45138457885 460.46051650019 331.19538457885 460.23651650019 C 330.93938457885 460.01251650019 329.94738457885 459.90051650019 328.21938457885 459.90051650019 L 291.25938457885 459.90051650019 C 289.46738457885 459.90051650019 288.45938457885 460.01251650019 288.23538457885 460.23651650019 C 288.01138457885 460.46051650019 287.89938457885 461.46851650019 287.89938457885 463.26051650019 L 287.89938457885 480.34851650019 Z M 355.19538457885 516.25251650019 L 355.19538457885 447.22851650019 L 410.87538457885 447.22851650019 C 414.58738457885 447.22851650019 417.75538457885 448.55651650019 420.37938457885 451.21251650019 C 423.00338457885 453.86851650019 424.31538457885 456.98851650019 424.31538457885 460.57251650019 L 424.31538457885 479.19651650019 C 424.31538457885 482.84451650019 423.00338457885 485.98051650019 420.37938457885 488.60451650019 C 417.75538457885 491.22851650019 414.58738457885 492.54051650019 410.87538457885 492.54051650019 L 407.13138457885 492.54051650019 L 424.21938457885 512.70051650019 L 424.21938457885 516.25251650019 L 410.39538457885 516.25251650019 L 390.52338457885 492.54051650019 L 367.86738457885 492.63651650019 L 367.86738457885 516.25251650019 L 355.19538457885 516.25251650019 Z M 371.22738457885 479.77251650019 L 408.18738457885 479.77251650019 C 409.91538457885 479.77251650019 410.89138457885 479.67651650019 411.11538457885 479.48451650019 C 411.33938457885 479.29251650019 411.45138457885 478.30051650019 411.45138457885 476.50851650019 L 411.45138457885 463.26051650019 C 411.45138457885 461.46851650019 411.33938457885 460.46051650019 411.11538457885 460.23651650019 C 410.89138457885 460.01251650019 409.91538457885 459.90051650019 408.18738457885 459.90051650019 L 371.22738457885 459.90051650019 C 369.43538457885 459.90051650019 368.42738457885 460.01251650019 368.20338457885 460.23651650019 C 367.97938457885 460.46051650019 367.86738457885 461.46851650019 367.86738457885 463.26051650019 L 367.86738457885 476.50851650019 C 367.86738457885 478.30051650019 367.97938457885 479.29251650019 368.20338457885 479.48451650019 C 368.42738457885 479.67651650019 369.43538457885 479.77251650019 371.22738457885 479.77251650019 Z M 459.25938457885 516.25251650019 L 459.25938457885 459.90051650019 L 431.03538457885 459.90051650019 L 431.03538457885 447.13251650019 L 500.15538457885 447.13251650019 L 500.15538457885 459.90051650019 L 472.02738457885 459.90051650019 L 472.02738457885 516.25251650019 L 459.25938457885 516.25251650019 Z M 507.54738457885 516.25251650019 L 507.54738457885 447.13251650019 L 571.19538457885 447.13251650019 L 571.19538457885 459.90051650019 L 520.31538457885 459.90051650019 L 520.31538457885 475.26051650019 L 561.21138457885 475.26051650019 L 561.21138457885 488.02851650019 L 520.31538457885 488.02851650019 L 520.31538457885 503.48451650019 L 571.19538457885 503.48451650019 L 571.19538457885 516.25251650019 L 507.54738457885 516.25251650019 Z M 594.23538457885 516.25251650019 C 590.58738457885 516.25251650019 587.45138457885 514.94051650019 584.82738457885 512.31651650019 C 582.20338457885 509.69251650019 580.89138457885 506.55651650019 580.89138457885 502.90851650019 L 580.89138457885 460.47651650019 C 580.89138457885 456.82851650019 582.20338457885 453.69251650019 584.82738457885 451.06851650019 C 587.45138457885 448.44451650019 590.58738457885 447.13251650019 594.23538457885 447.13251650019 L 649.81938457885 447.13251650019 L 649.81938457885 459.90051650019 L 596.92338457885 459.90051650019 C 595.13138457885 459.90051650019 594.12338457885 460.01251650019 593.89938457885 460.23651650019 C 593.67538457885 460.46051650019 593.56338457885 461.46851650019 593.56338457885 463.26051650019 L 593.56338457885 500.12451650019 C 593.56338457885 501.91651650019 593.67538457885 502.92451650019 593.89938457885 503.14851650019 C 594.12338457885 503.37251650019 595.13138457885 503.48451650019 596.92338457885 503.48451650019 L 649.81938457885 503.48451650019 L 649.81938457885 516.25251650019 L 594.23538457885 516.25251650019 Z M 659.89938457885 516.25251650019 L 659.89938457885 447.13251650019 L 672.57138457885 447.13251650019 L 672.57138457885 475.26051650019 L 717.88338457885 475.26051650019 L 717.88338457885 447.13251650019 L 730.55538457885 447.13251650019 L 730.55538457885 516.25251650019 L 717.88338457885 516.25251650019 L 717.88338457885 488.02851650019 L 672.57138457885 488.02851650019 L 672.57138457885 516.25251650019 L 659.89938457885 516.25251650019 Z"/></svg>